<svg width="20" height="18" viewBox="0 0 20 18" fill="none" xmlns="http://www.w3.org/2000/svg">
<path d="M19.4719 4.34765L10.6375 0.394519C10.2084 0.202722 9.74063 0.202722 9.31156 0.394519L0.501562 4.34765C0.201187 4.48436 0 4.84374 0 5.24999C0 5.65624 0.201187 6.01757 0.501562 6.15194L2.37719 6.99218C2.00563 7.60937 1.74406 8.32655 1.61 9.0996C1.25156 9.28905 1 9.73437 1 10.25C1 10.6388 1.15044 10.9723 1.37312 11.2016L0.597188 17.0219C0.54625 17.4023 0.78125 17.75 1.09031 17.75H2.90969C3.21866 17.75 3.45375 17.4032 3.40281 17.0223L2.62687 11.2019C2.84969 10.9726 3 10.6055 3 10.25C3 9.84804 2.83831 9.50663 2.6025 9.27773C2.73537 8.58397 3.005 7.95663 3.38188 7.44062L9.33813 10.1059C9.76719 10.2976 10.235 10.2976 10.6641 10.1059L19.4984 6.15272C19.8 6.01561 20 5.65624 20 5.24999C20 4.84374 19.8 4.48436 19.4719 4.34765ZM10.9719 11.2812C10.6781 11.4258 10.3406 11.5 10 11.5C9.65875 11.5 9.32219 11.4271 9 11.283L4.4625 9.2539L4 14.832C4 16.4453 6.65938 17.75 10 17.75C13.2844 17.75 16 16.4453 16 14.8332L15.5381 9.25116L10.9719 11.2812Z" fill="white"/>
</svg>
